<?xml version="1.0" encoding="utf-8"?>
<!-- Generator: Adobe Illustrator 21.1.0, SVG Export Plug-In . SVG Version: 6.00 Build 0)  -->
<svg version="1.1" id="Layer_1" xmlns="http://www.w3.org/2000/svg" xmlns:xlink="http://www.w3.org/1999/xlink" x="0px" y="0px"
	 viewBox="0 0 18 18" style="enable-background:new 0 0 18 18;" xml:space="preserve">
<g>
	<g>
		<path d="M17.2,11.6c-0.4-0.1-0.8,0-0.9,0.4c-1.2,2.8-4,4.7-7.1,4.7c-4.3,0-7.7-3.4-7.7-7.6c0-4.2,3.5-7.6,7.7-7.6
			c2.1,0,4,0.8,5.5,2.3l-1.7,1.8l5,0.4l-0.6-5.1l-1.8,1.8C13.9,1,11.6,0,9.1,0C4.1,0,0,4,0,9c0,5,4.1,9,9.1,9c3.7,0,7-2.2,8.4-5.5
			C17.7,12.2,17.6,11.7,17.2,11.6z"/>
	</g>
</g>
</svg>
